<?xml version="1.0" encoding="utf-8"?>
<?xml-stylesheet type="text/xsl" href="rss1.xsl"?>
<rss version="2.0" xmlns:atom="http://www.w3.org/2005/Atom" xmlns:content="http://purl.org/rss/1.0/modules/content/" xmlns:dc="http://purl.org/dc/elements/1.1/" xmlns:media="http://search.yahoo.com/mrss/">
<channel>
 <title>Getty</title>
 <link>http://www.gettyimg.com/</link>
 <atom:link href="http://www.gettyimg.com/" rel="self" type="application/rss+xml" />

 
                <item>
                <title><![CDATA[【Documentaries】WEB-DL - BTS Monuments: Beyond The Star | Episode 5 &amp; 6 - 720p DSNP WEB-DL DDP5.1 H.264 - liljaa]]></title>
                <link><![CDATA[https://sharemania.us/threads/bts-monuments-beyond-the-star-episode-5-6-720p-dsnp-web-dl-ddp5-1-h-264-liljaa.235158/]]></link>
                <description><![CDATA[<article>
<blockquote class="messageText SelectQuoteContainer ugc baseHtml">
<div class="bbCodeBlock bbCodeQuote">
<aside>
<blockquote class="quoteContainer"><div class="quote"><i>BTS mark its 10th anniversary as 21st-century pop icons. Join their journey to the top and beyond.</i></div><div class="quoteExpand">Click to expand...</div></blockquote>
</aside>
</div><b>Episode 5/8 – Welcome!</b><br>
<img src="https://images2.imgbox.com/1c/2d/N541bDeT_o.jpg" class="bbCodeImage LbImage" alt="[​IMG]" data-url="https://images2.imgbox.com/1c/2d/N541bDeT_o.jpg" style=""><br>
<br>
<div class="ToggleTriggerAnchor bbCodeSpoilerContainer">
<button type="button" class="button bbCodeSpoilerButton ToggleTrigger Tooltip JsOnly" data-target="> .SpoilerTarget"><span>Spoiler: <span class="SpoilerTitle">MediaInfo</span></span></button>
<div class="SpoilerTarget bbCodeSpoilerText">MediaInfo<br>
<div class="bbCodeBlock bbCodeCode">
<div class="type">Code:</div>
<pre>General
Complete name                            : 05. BTS Monuments Beyond The Star Episode 5 – Welcome!.mp4
Format                                   : MPEG-4
Format profile                           : Base Media
Codec ID                                 : isom (isom/dby1/iso2/avc1/mp41)
File size                                : 841 MiB
Duration                                 : 30 min 34 s
Overall bit rate mode                    : Variable
Overall bit rate                         : 3 844 kb/s
Frame rate                               : 23.976 FPS
Movie name                               : BTS Monuments Beyond The Star Episode 5 – Welcome!
Performer                                : BTS
Description                              : At long last, BTS reunites with ARMY in person. At the same time, new paths open up for the members.
Recorded date                            : 2024
Writing application                      : Lavf60.3.100
Cover                                    : Yes
Comment                                  : Download by liljaa

Video
ID                                       : 1
Format                                   : AVC
Format/Info                              : Advanced Video Codec
Format profile                           : High@L3.1
Format settings                          : CABAC / 4 Ref Frames
Format settings, CABAC                   : Yes
Format settings, Reference frames        : 4 frames
Codec ID                                 : avc1
Codec ID/Info                            : Advanced Video Coding
Duration                                 : 30 min 34 s
Bit rate mode                            : Variable
Bit rate                                 : 3 579 kb/s
Maximum bit rate                         : 6 375 kb/s
Width                                    : 1 280 pixels
Height                                   : 720 pixels
Display aspect ratio                     : 16:9
Frame rate mode                          : Constant
Frame rate                               : 23.976 (24000/1001) FPS
Color space                              : YUV
Chroma subsampling                       : 4:2:0
Bit depth                                : 8 bits
Scan type                                : Progressive
Bits/(Pixel*Frame)                       : 0.162
Time code of first frame                 : 00:00:00:0000000000
Stream size                              : 783 MiB (93%)
Title                                    : BAMTech video
Color range                              : Limited
Color primaries                          : BT.709
Transfer characteristics                 : BT.709
Matrix coefficients                      : BT.709
Codec configuration box                  : avcC

Audio
ID                                       : 3
Format                                   : E-AC-3
Format/Info                              : Enhanced AC-3
Commercial name                          : Dolby Digital Plus
Codec ID                                 : ec-3
Duration                                 : 30 min 34 s
Bit rate mode                            : Constant
Bit rate                                 : 256 kb/s
Channel(s)                               : 6 channels
Channel layout                           : L R C LFE Ls Rs
Sampling rate                            : 48.0 kHz
Frame rate                               : 31.250 FPS (1536 SPF)
Compression mode                         : Lossy
Stream size                              : 56.0 MiB (7%)
Title                                    : BAMTech audio / Korean
Language                                 : Korean
Service kind                             : Complete Main
Default                                  : Yes
Alternate group                          : 1

Text #1
ID                                       : 4
Format                                   : Timed Text
Muxing mode                              : sbtl
Codec ID                                 : tx3g
Duration                                 : 30 min 34 s
Bit rate mode                            : Variable
Bit rate                                 : 78 b/s
Frame rate                               : 0.522 FPS
Stream size                              : 17.4 KiB (0%)
Title                                    : Chinese (Traditional)
Language                                 : Chinese
Default                                  : No
Forced                                   : No
Alternate group                          : 3
Count of events                          : 478

Text #2
ID                                       : 5
Format                                   : Timed Text
Muxing mode                              : sbtl
Codec ID                                 : tx3g
Duration                                 : 30 min 34 s
Bit rate mode                            : Variable
Bit rate                                 : 86 b/s
Frame rate                               : 0.518 FPS
Stream size                              : 19.2 KiB (0%)
Title                                    : Dansk
Language                                 : Danish
Default                                  : No
Forced                                   : No
Alternate group                          : 3
Count of events                          : 475

Text #3
ID                                       : 6
Format                                   : Timed Text
Muxing mode                              : sbtl
Codec ID                                 : tx3g
Duration                                 : 30 min 34 s
Bit rate mode                            : Variable
Bit rate                                 : 86 b/s
Frame rate                               : 0.516 FPS
Stream size                              : 19.3 KiB (0%)
Title                                    : Deutsch
Language                                 : German
Default                                  : No
Forced                                   : No
Alternate group                          : 3
Count of events                          : 473

Text #4
ID                                       : 7
Format                                   : Timed Text
Muxing mode                              : sbtl
Codec ID                                 : tx3g
Duration                                 : 30 min 34 s
Bit rate mode                            : Variable
Bit rate                                 : 102 b/s
Frame rate                               : 0.583 FPS
Stream size                              : 22.9 KiB (0%)
Title                                    : English [CC]
Language                                 : English
Default                                  : No
Forced                                   : No
Alternate group                          : 3
Count of events                          : 534

Text #5
ID                                       : 8
Format                                   : Timed Text
Muxing mode                              : sbtl
Codec ID                                 : tx3g
Duration                                 : 30 min 34 s
Bit rate mode                            : Variable
Bit rate                                 : 84 b/s
Frame rate                               : 0.518 FPS
Stream size                              : 18.9 KiB (0%)
Title                                    : Español
Language                                 : Spanish
Default                                  : No
Forced                                   : No
Alternate group                          : 3
Count of events                          : 475

Text #6
ID                                       : 9
Format                                   : Timed Text
Muxing mode                              : sbtl
Codec ID                                 : tx3g
Duration                                 : 30 min 34 s
Bit rate mode                            : Variable
Bit rate                                 : 87 b/s
Frame rate                               : 0.514 FPS
Stream size                              : 19.6 KiB (0%)
Title                                    : Español (Latinoamericano)
Language                                 : Spanish
Default                                  : No
Forced                                   : No
Alternate group                          : 3
Count of events                          : 471

Text #7
ID                                       : 10
Format                                   : Timed Text
Muxing mode                              : sbtl
Codec ID                                 : tx3g
Duration                                 : 30 min 34 s
Bit rate mode                            : Variable
Bit rate                                 : 89 b/s
Frame rate                               : 0.518 FPS
Stream size                              : 19.8 KiB (0%)
Title                                    : Français
Language                                 : French
Default                                  : No
Forced                                   : No
Alternate group                          : 3
Count of events                          : 475

Text #8
ID                                       : 11
Format                                   : Timed Text
Muxing mode                              : sbtl
Codec ID                                 : tx3g
Duration                                 : 30 min 34 s
Bit rate mode                            : Variable
Bit rate                                 : 141 b/s
Frame rate                               : 0.519 FPS
Stream size                              : 31.6 KiB (0%)
Title                                    : Greek
Language                                 : Greek
Default                                  : No
Forced                                   : No
Alternate group                          : 3
Count of events                          : 476

Text #9
ID                                       : 12
Format                                   : Timed Text
Muxing mode                              : sbtl
Codec ID                                 : tx3g
Duration                                 : 30 min 34 s
Bit rate mode                            : Variable
Bit rate                                 : 82 b/s
Frame rate                               : 0.519 FPS
Stream size                              : 18.4 KiB (0%)
Title                                    : Italiano
Language                                 : Italian
Default                                  : No
Forced                                   : No
Alternate group                          : 3
Count of events                          : 475

Text #10
ID                                       : 13
Format                                   : Timed Text
Muxing mode                              : sbtl
Codec ID                                 : tx3g
Duration                                 : 30 min 34 s
Bit rate mode                            : Variable
Bit rate                                 : 90 b/s
Frame rate                               : 0.492 FPS
Stream size                              : 20.1 KiB (0%)
Title                                    : Japanese
Language                                 : Japanese
Default                                  : No
Forced                                   : No
Alternate group                          : 3
Count of events                          : 453

Text #11
ID                                       : 14
Format                                   : Timed Text
Muxing mode                              : sbtl
Codec ID                                 : tx3g
Duration                                 : 30 min 33 s
Bit rate mode                            : Variable
Bit rate                                 : 7 b/s
Frame rate                               : 0.051 FPS
Stream size                              : 1.55 KiB (0%)
Title                                    : ko--forced--
Language                                 : Korean
Default                                  : No
Forced                                   : No
Alternate group                          : 3
Count of events                          : 46

Text #12
ID                                       : 15
Format                                   : Timed Text
Muxing mode                              : sbtl
Codec ID                                 : tx3g
Duration                                 : 30 min 33 s
Bit rate mode                            : Variable
Bit rate                                 : 114 b/s
Frame rate                               : 0.608 FPS
Stream size                              : 25.4 KiB (0%)
Title                                    : Korean [CC]
Language                                 : Korean
Default                                  : No
Forced                                   : No
Alternate group                          : 3
Count of events                          : 557

Text #13
ID                                       : 16
Format                                   : Timed Text
Muxing mode                              : sbtl
Codec ID                                 : tx3g
Duration                                 : 30 min 34 s
Bit rate mode                            : Variable
Bit rate                                 : 90 b/s
Frame rate                               : 0.519 FPS
Stream size                              : 20.2 KiB (0%)
Title                                    : Magyar
Language                                 : Hungarian
Default                                  : No
Forced                                   : No
Alternate group                          : 3
Count of events                          : 476

Text #14
ID                                       : 17
Format                                   : Timed Text
Muxing mode                              : sbtl
Codec ID                                 : tx3g
Duration                                 : 30 min 34 s
Bit rate mode                            : Variable
Bit rate                                 : 87 b/s
Frame rate                               : 0.521 FPS
Stream size                              : 19.5 KiB (0%)
Title                                    : Nederlands
Language                                 : Dutch
Default                                  : No
Forced                                   : No
Alternate group                          : 3
Count of events                          : 477

Text #15
ID                                       : 18
Format                                   : Timed Text
Muxing mode                              : sbtl
Codec ID                                 : tx3g
Duration                                 : 30 min 34 s
Bit rate mode                            : Variable
Bit rate                                 : 83 b/s
Frame rate                               : 0.516 FPS
Stream size                              : 18.7 KiB (0%)
Title                                    : Norsk
Language                                 : Norwegian
Default                                  : No
Forced                                   : No
Alternate group                          : 3
Count of events                          : 473

Text #16
ID                                       : 19
Format                                   : Timed Text
Muxing mode                              : sbtl
Codec ID                                 : tx3g
Duration                                 : 30 min 34 s
Bit rate mode                            : Variable
Bit rate                                 : 81 b/s
Frame rate                               : 0.519 FPS
Stream size                              : 18.2 KiB (0%)
Title                                    : Polski
Language                                 : Polish
Default                                  : No
Forced                                   : No
Alternate group                          : 3
Count of events                          : 476

Text #17
ID                                       : 20
Format                                   : Timed Text
Muxing mode                              : sbtl
Codec ID                                 : tx3g
Duration                                 : 30 min 34 s
Bit rate mode                            : Variable
Bit rate                                 : 82 b/s
Frame rate                               : 0.518 FPS
Stream size                              : 18.5 KiB (0%)
Title                                    : Português
Language                                 : Portuguese
Default                                  : No
Forced                                   : No
Alternate group                          : 3
Count of events                          : 475

Text #18
ID                                       : 21
Format                                   : Timed Text
Muxing mode                              : sbtl
Codec ID                                 : tx3g
Duration                                 : 30 min 34 s
Bit rate mode                            : Variable
Bit rate                                 : 82 b/s
Frame rate                               : 0.518 FPS
Stream size                              : 18.3 KiB (0%)
Title                                    : Português (Brasil)
Language                                 : Portuguese
Default                                  : No
Forced                                   : No
Alternate group                          : 3
Count of events                          : 475

Text #19
ID                                       : 22
Format                                   : Timed Text
Muxing mode                              : sbtl
Codec ID                                 : tx3g
Duration                                 : 30 min 34 s
Bit rate mode                            : Variable
Bit rate                                 : 89 b/s
Frame rate                               : 0.519 FPS
Stream size                              : 19.9 KiB (0%)
Title                                    : Română
Language                                 : Romanian
Default                                  : No
Forced                                   : No
Alternate group                          : 3
Count of events                          : 476

Text #20
ID                                       : 23
Format                                   : Timed Text
Muxing mode                              : sbtl
Codec ID                                 : tx3g
Duration                                 : 30 min 34 s
Bit rate mode                            : Variable
Bit rate                                 : 91 b/s
Frame rate                               : 0.519 FPS
Stream size                              : 20.4 KiB (0%)
Title                                    : Slovenčina
Language                                 : Slovak
Default                                  : No
Forced                                   : No
Alternate group                          : 3
Count of events                          : 476

Text #21
ID                                       : 24
Format                                   : Timed Text
Muxing mode                              : sbtl
Codec ID                                 : tx3g
Duration                                 : 30 min 34 s
Bit rate mode                            : Variable
Bit rate                                 : 82 b/s
Frame rate                               : 0.519 FPS
Stream size                              : 18.4 KiB (0%)
Title                                    : Suomi
Language                                 : Finnish
Default                                  : No
Forced                                   : No
Alternate group                          : 3
Count of events                          : 476

Text #22
ID                                       : 25
Format                                   : Timed Text
Muxing mode                              : sbtl
Codec ID                                 : tx3g
Duration                                 : 30 min 34 s
Bit rate mode                            : Variable
Bit rate                                 : 83 b/s
Frame rate                               : 0.518 FPS
Stream size                              : 18.5 KiB (0%)
Title                                    : Svenska
Language                                 : Swedish
Default                                  : Yes
Forced                                   : No
Alternate group                          : 3
Count of events                          : 475

Text #23
ID                                       : 26
Format                                   : Timed Text
Muxing mode                              : sbtl
Codec ID                                 : tx3g
Duration                                 : 30 min 34 s
Bit rate mode                            : Variable
Bit rate                                 : 89 b/s
Frame rate                               : 0.519 FPS
Stream size                              : 19.8 KiB (0%)
Title                                    : Türkçe
Language                                 : Turkish
Default                                  : No
Forced                                   : No
Alternate group                          : 3
Count of events                          : 476

Text #24
ID                                       : 27
Format                                   : Timed Text
Muxing mode                              : sbtl
Codec ID                                 : tx3g
Duration                                 : 30 min 34 s
Bit rate mode                            : Variable
Bit rate                                 : 84 b/s
Frame rate                               : 0.519 FPS
Stream size                              : 18.9 KiB (0%)
Title                                    : Čeština
Language                                 : Czech
Default                                  : No
Forced                                   : No
Alternate group                          : 3
Count of events                          : 476
</pre>
</div></div>
</div><br>
<b>Episode 6/8 – Begin and Again</b><br>
<img src="https://images2.imgbox.com/8f/cd/pjaXdQYA_o.jpg" class="bbCodeImage LbImage" alt="[​IMG]" data-url="https://images2.imgbox.com/8f/cd/pjaXdQYA_o.jpg" style=""><br>
<br>
<div class="ToggleTriggerAnchor bbCodeSpoilerContainer">
<button type="button" class="button bbCodeSpoilerButton ToggleTrigger Tooltip JsOnly" data-target="> .SpoilerTarget"><span>Spoiler: <span class="SpoilerTitle">MediaInfo</span></span></button>
<div class="SpoilerTarget bbCodeSpoilerText">MediaInfo<br>
<div class="bbCodeBlock bbCodeCode">
<div class="type">Code:</div>
<pre>General
Complete name                            : 06. BTS Monuments Beyond The Star Episode 6 – Begin and Again.mp4
Format                                   : MPEG-4
Format profile                           : Base Media
Codec ID                                 : isom (isom/dby1/iso2/avc1/mp41)
File size                                : 773 MiB
Duration                                 : 30 min 7 s
Overall bit rate mode                    : Variable
Overall bit rate                         : 3 587 kb/s
Frame rate                               : 23.976 FPS
Collection                               : BTS Monuments: Beyond The Star
Season                                   : 1
Track name                               : BTS Monuments Beyond The Star Episode 6 – Begin and Again
Performer                                : BTS
Description                              : BTS is finally back on stage in Korea. However, they cannot freely communicate with ARMY anymore.
Recorded date                            : 2024
Writing application                      : Lavf60.3.100
Cover                                    : Yes
Comment                                  : Download by liljaa
Part_ID                                  : 6

Video
ID                                       : 1
Format                                   : AVC
Format/Info                              : Advanced Video Codec
Format profile                           : High@L3.1
Format settings                          : CABAC / 4 Ref Frames
Format settings, CABAC                   : Yes
Format settings, Reference frames        : 4 frames
Codec ID                                 : avc1
Codec ID/Info                            : Advanced Video Coding
Duration                                 : 30 min 7 s
Bit rate mode                            : Variable
Bit rate                                 : 3 321 kb/s
Maximum bit rate                         : 6 375 kb/s
Width                                    : 1 280 pixels
Height                                   : 720 pixels
Display aspect ratio                     : 16:9
Frame rate mode                          : Constant
Frame rate                               : 23.976 (24000/1001) FPS
Color space                              : YUV
Chroma subsampling                       : 4:2:0
Bit depth                                : 8 bits
Scan type                                : Progressive
Bits/(Pixel*Frame)                       : 0.150
Time code of first frame                 : 00:00:00:0000000000
Stream size                              : 716 MiB (93%)
Title                                    : BAMTech video
Color range                              : Limited
Color primaries                          : BT.709
Transfer characteristics                 : BT.709
Matrix coefficients                      : BT.709
Codec configuration box                  : avcC

Audio
ID                                       : 3
Format                                   : E-AC-3
Format/Info                              : Enhanced AC-3
Commercial name                          : Dolby Digital Plus
Codec ID                                 : ec-3
Duration                                 : 30 min 7 s
Bit rate mode                            : Constant
Bit rate                                 : 256 kb/s
Channel(s)                               : 6 channels
Channel layout                           : L R C LFE Ls Rs
Sampling rate                            : 48.0 kHz
Frame rate                               : 31.250 FPS (1536 SPF)
Compression mode                         : Lossy
Stream size                              : 55.2 MiB (7%)
Title                                    : BAMTech audio / Korean
Language                                 : Korean
Service kind                             : Complete Main
Default                                  : Yes
Alternate group                          : 1

Text #1
ID                                       : 4
Format                                   : Timed Text
Muxing mode                              : sbtl
Codec ID                                 : tx3g
Duration                                 : 30 min 7 s
Bit rate mode                            : Variable
Bit rate                                 : 97 b/s
Frame rate                               : 0.625 FPS
Stream size                              : 21.5 KiB (0%)
Title                                    : Chinese (Traditional)
Language                                 : Chinese
Default                                  : No
Forced                                   : No
Alternate group                          : 3
Count of events                          : 564

Text #2
ID                                       : 5
Format                                   : Timed Text
Muxing mode                              : sbtl
Codec ID                                 : tx3g
Duration                                 : 30 min 7 s
Bit rate mode                            : Variable
Bit rate                                 : 106 b/s
Frame rate                               : 0.624 FPS
Stream size                              : 23.3 KiB (0%)
Title                                    : Dansk
Language                                 : Danish
Default                                  : No
Forced                                   : No
Alternate group                          : 3
Count of events                          : 563

Text #3
ID                                       : 6
Format                                   : Timed Text
Muxing mode                              : sbtl
Codec ID                                 : tx3g
Duration                                 : 30 min 7 s
Bit rate mode                            : Variable
Bit rate                                 : 108 b/s
Frame rate                               : 0.627 FPS
Stream size                              : 23.9 KiB (0%)
Title                                    : Deutsch
Language                                 : German
Default                                  : No
Forced                                   : No
Alternate group                          : 3
Count of events                          : 566

Text #4
ID                                       : 7
Format                                   : Timed Text
Muxing mode                              : sbtl
Codec ID                                 : tx3g
Duration                                 : 30 min 7 s
Bit rate mode                            : Variable
Bit rate                                 : 124 b/s
Frame rate                               : 0.671 FPS
Stream size                              : 27.4 KiB (0%)
Title                                    : English [CC]
Language                                 : English
Default                                  : No
Forced                                   : No
Alternate group                          : 3
Count of events                          : 606

Text #5
ID                                       : 8
Format                                   : Timed Text
Muxing mode                              : sbtl
Codec ID                                 : tx3g
Duration                                 : 30 min 7 s
Bit rate mode                            : Variable
Bit rate                                 : 103 b/s
Frame rate                               : 0.618 FPS
Stream size                              : 22.8 KiB (0%)
Title                                    : Español
Language                                 : Spanish
Default                                  : No
Forced                                   : No
Alternate group                          : 3
Count of events                          : 558

Text #6
ID                                       : 9
Format                                   : Timed Text
Muxing mode                              : sbtl
Codec ID                                 : tx3g
Duration                                 : 30 min 7 s
Bit rate mode                            : Variable
Bit rate                                 : 107 b/s
Frame rate                               : 0.605 FPS
Stream size                              : 23.5 KiB (0%)
Title                                    : Español (Latinoamericano)
Language                                 : Spanish
Default                                  : No
Forced                                   : No
Alternate group                          : 3
Count of events                          : 546

Text #7
ID                                       : 10
Format                                   : Timed Text
Muxing mode                              : sbtl
Codec ID                                 : tx3g
Duration                                 : 30 min 7 s
Bit rate mode                            : Variable
Bit rate                                 : 113 b/s
Frame rate                               : 0.628 FPS
Stream size                              : 24.8 KiB (0%)
Title                                    : Français
Language                                 : French
Default                                  : No
Forced                                   : No
Alternate group                          : 3
Count of events                          : 567

Text #8
ID                                       : 11
Format                                   : Timed Text
Muxing mode                              : sbtl
Codec ID                                 : tx3g
Duration                                 : 30 min 7 s
Bit rate mode                            : Variable
Bit rate                                 : 163 b/s
Frame rate                               : 0.624 FPS
Stream size                              : 35.9 KiB (0%)
Title                                    : Greek
Language                                 : Greek
Default                                  : No
Forced                                   : No
Alternate group                          : 3
Count of events                          : 563

Text #9
ID                                       : 12
Format                                   : Timed Text
Muxing mode                              : sbtl
Codec ID                                 : tx3g
Duration                                 : 30 min 7 s
Bit rate mode                            : Variable
Bit rate                                 : 102 b/s
Frame rate                               : 0.621 FPS
Stream size                              : 22.5 KiB (0%)
Title                                    : Italiano
Language                                 : Italian
Default                                  : No
Forced                                   : No
Alternate group                          : 3
Count of events                          : 561

Text #10
ID                                       : 13
Format                                   : Timed Text
Muxing mode                              : sbtl
Codec ID                                 : tx3g
Duration                                 : 30 min 7 s
Bit rate mode                            : Variable
Bit rate                                 : 100 b/s
Frame rate                               : 0.607 FPS
Stream size                              : 22.2 KiB (0%)
Title                                    : Japanese
Language                                 : Japanese
Default                                  : No
Forced                                   : No
Alternate group                          : 3
Count of events                          : 549

Text #11
ID                                       : 14
Format                                   : Timed Text
Muxing mode                              : sbtl
Codec ID                                 : tx3g
Duration                                 : 30 min 7 s
Bit rate mode                            : Variable
Bit rate                                 : 4 b/s
Frame rate                               : 0.029 FPS
Stream size                              : 845 Bytes (0%)
Title                                    : ko--forced--
Language                                 : Korean
Default                                  : No
Forced                                   : No
Alternate group                          : 3
Count of events                          : 26

Text #12
ID                                       : 15
Format                                   : Timed Text
Muxing mode                              : sbtl
Codec ID                                 : tx3g
Duration                                 : 30 min 7 s
Bit rate mode                            : Variable
Bit rate                                 : 129 b/s
Frame rate                               : 0.700 FPS
Stream size                              : 28.4 KiB (0%)
Title                                    : Korean [CC]
Language                                 : Korean
Default                                  : No
Forced                                   : No
Alternate group                          : 3
Count of events                          : 632

Text #13
ID                                       : 16
Format                                   : Timed Text
Muxing mode                              : sbtl
Codec ID                                 : tx3g
Duration                                 : 30 min 7 s
Bit rate mode                            : Variable
Bit rate                                 : 112 b/s
Frame rate                               : 0.619 FPS
Stream size                              : 24.7 KiB (0%)
Title                                    : Magyar
Language                                 : Hungarian
Default                                  : No
Forced                                   : No
Alternate group                          : 3
Count of events                          : 559

Text #14
ID                                       : 17
Format                                   : Timed Text
Muxing mode                              : sbtl
Codec ID                                 : tx3g
Duration                                 : 30 min 7 s
Bit rate mode                            : Variable
Bit rate                                 : 107 b/s
Frame rate                               : 0.620 FPS
Stream size                              : 23.6 KiB (0%)
Title                                    : Nederlands
Language                                 : Dutch
Default                                  : No
Forced                                   : No
Alternate group                          : 3
Count of events                          : 560

Text #15
ID                                       : 18
Format                                   : Timed Text
Muxing mode                              : sbtl
Codec ID                                 : tx3g
Duration                                 : 30 min 7 s
Bit rate mode                            : Variable
Bit rate                                 : 104 b/s
Frame rate                               : 0.616 FPS
Stream size                              : 23.0 KiB (0%)
Title                                    : Norsk
Language                                 : Norwegian
Default                                  : No
Forced                                   : No
Alternate group                          : 3
Count of events                          : 556

Text #16
ID                                       : 19
Format                                   : Timed Text
Muxing mode                              : sbtl
Codec ID                                 : tx3g
Duration                                 : 30 min 7 s
Bit rate mode                            : Variable
Bit rate                                 : 100 b/s
Frame rate                               : 0.620 FPS
Stream size                              : 22.1 KiB (0%)
Title                                    : Polski
Language                                 : Polish
Default                                  : No
Forced                                   : No
Alternate group                          : 3
Count of events                          : 560

Text #17
ID                                       : 20
Format                                   : Timed Text
Muxing mode                              : sbtl
Codec ID                                 : tx3g
Duration                                 : 30 min 7 s
Bit rate mode                            : Variable
Bit rate                                 : 101 b/s
Frame rate                               : 0.622 FPS
Stream size                              : 22.3 KiB (0%)
Title                                    : Português
Language                                 : Portuguese
Default                                  : No
Forced                                   : No
Alternate group                          : 3
Count of events                          : 562

Text #18
ID                                       : 21
Format                                   : Timed Text
Muxing mode                              : sbtl
Codec ID                                 : tx3g
Duration                                 : 30 min 7 s
Bit rate mode                            : Variable
Bit rate                                 : 101 b/s
Frame rate                               : 0.627 FPS
Stream size                              : 22.3 KiB (0%)
Title                                    : Português (Brasil)
Language                                 : Portuguese
Default                                  : No
Forced                                   : No
Alternate group                          : 3
Count of events                          : 566

Text #19
ID                                       : 22
Format                                   : Timed Text
Muxing mode                              : sbtl
Codec ID                                 : tx3g
Duration                                 : 30 min 7 s
Bit rate mode                            : Variable
Bit rate                                 : 110 b/s
Frame rate                               : 0.619 FPS
Stream size                              : 24.2 KiB (0%)
Title                                    : Română
Language                                 : Romanian
Default                                  : No
Forced                                   : No
Alternate group                          : 3
Count of events                          : 559

Text #20
ID                                       : 23
Format                                   : Timed Text
Muxing mode                              : sbtl
Codec ID                                 : tx3g
Duration                                 : 30 min 7 s
Bit rate mode                            : Variable
Bit rate                                 : 114 b/s
Frame rate                               : 0.618 FPS
Stream size                              : 25.1 KiB (0%)
Title                                    : Slovenčina
Language                                 : Slovak
Default                                  : No
Forced                                   : No
Alternate group                          : 3
Count of events                          : 558

Text #21
ID                                       : 24
Format                                   : Timed Text
Muxing mode                              : sbtl
Codec ID                                 : tx3g
Duration                                 : 30 min 7 s
Bit rate mode                            : Variable
Bit rate                                 : 103 b/s
Frame rate                               : 0.626 FPS
Stream size                              : 22.8 KiB (0%)
Title                                    : Suomi
Language                                 : Finnish
Default                                  : No
Forced                                   : No
Alternate group                          : 3
Count of events                          : 565

Text #22
ID                                       : 25
Format                                   : Timed Text
Muxing mode                              : sbtl
Codec ID                                 : tx3g
Duration                                 : 30 min 7 s
Bit rate mode                            : Variable
Bit rate                                 : 92 b/s
Frame rate                               : 0.618 FPS
Stream size                              : 20.2 KiB (0%)
Title                                    : Svenska
Language                                 : Swedish
Default                                  : Yes
Forced                                   : No
Alternate group                          : 3
Count of events                          : 558

Text #23
ID                                       : 26
Format                                   : Timed Text
Muxing mode                              : sbtl
Codec ID                                 : tx3g
Duration                                 : 30 min 7 s
Bit rate mode                            : Variable
Bit rate                                 : 110 b/s
Frame rate                               : 0.620 FPS
Stream size                              : 24.3 KiB (0%)
Title                                    : Türkçe
Language                                 : Turkish
Default                                  : No
Forced                                   : No
Alternate group                          : 3
Count of events                          : 560

Text #24
ID                                       : 27
Format                                   : Timed Text
Muxing mode                              : sbtl
Codec ID                                 : tx3g
Duration                                 : 30 min 7 s
Bit rate mode                            : Variable
Bit rate                                 : 104 b/s
Frame rate                               : 0.619 FPS
Stream size                              : 23.0 KiB (0%)
Title                                    : Čeština
Language                                 : Czech
Default                                  : No
Forced                                   : No
Alternate group                          : 3
Count of events                          : 559
</pre>
</div></div>
</div><br>
<a href="https://sharemania.us/threads/bts-monuments-beyond-the-star-episode-1-2-720p-dsnp-web-dl-ddp5-1-h-264-liljaa.234312/" class="internalLink">Episode 1 &amp; 2</a> <br>
<a href="https://sharemania.us/threads/bts-monuments-beyond-the-star-episode-3-4-720p-dsnp-web-dl-ddp5-1-h-264-liljaa.234758/" class="internalLink">Episode 3 &amp; 4</a><br>
<br>
<div class="bbCodeBlock bbCodeVfcHH HiddenContent">
<div class="attribution type">Hidden Content:</div>
<blockquote>You must either reply or click 'Like' to see the hidden information contained here.</blockquote>
</div>
<div class="messageTextEndMarker">&nbsp;</div>
</blockquote>
</article>]]></description>
                <author><![CDATA[Liljaa]]></author>
                </item>

                </channel></rss>